<?xml version="1.0" standalone="no"?>
<!DOCTYPE svg PUBLIC "-//W3C//DTD SVG 20010904//EN"
 "http://www.w3.org/TR/2001/REC-SVG-20010904/DTD/svg10.dtd">
<svg version="1.0" xmlns="http://www.w3.org/2000/svg"
 width="828.000000pt" height="828.000000pt" viewBox="0 0 828.000000 828.000000"
 preserveAspectRatio="xMidYMid meet">
<metadata>
Created by potrace 1.14, written by Peter Selinger 2001-2017
</metadata>
<g transform="translate(0.000000,828.000000) scale(0.100000,-0.100000)"
fill="#000000" stroke="none">
<path d="M3908 8275 c-2 -1 -48 -5 -103 -9 -55 -3 -111 -8 -125 -10 -14 -3
-65 -10 -115 -16 -492 -66 -1020 -245 -1465 -497 -325 -185 -606 -400 -880
-673 -190 -189 -314 -335 -466 -550 -309 -436 -546 -970 -653 -1475 -12 -55
-26 -118 -31 -140 -5 -22 -12 -62 -15 -90 -4 -27 -8 -57 -10 -65 -2 -8 -7 -42
-10 -75 -4 -33 -8 -70 -10 -83 -26 -163 -26 -786 0 -905 2 -12 6 -42 9 -67 25
-253 146 -744 231 -935 7 -16 16 -41 20 -55 24 -81 217 -481 266 -552 11 -14
19 -29 19 -32 0 -17 212 -334 290 -431 17 -22 43 -55 58 -74 168 -211 476
-515 672 -661 18 -14 38 -30 44 -35 37 -35 380 -265 394 -265 4 0 24 -11 45
-25 67 -46 321 -172 472 -234 130 -54 129 -54 140 -57 6 -1 60 -20 120 -42 91
-32 283 -89 361 -107 172 -40 336 -68 512 -90 220 -26 785 -26 921 0 10 2 42
6 72 9 30 3 68 8 84 11 17 3 57 10 90 16 33 5 80 14 105 19 25 5 56 12 70 14
151 25 527 145 745 238 87 37 313 148 380 186 28 16 73 42 100 57 78 44 280
180 390 263 90 68 152 118 254 207 62 53 304 298 361 364 30 35 63 72 72 82
34 36 198 257 269 364 288 432 499 938 603 1447 25 121 28 137 41 228 4 25 8
56 10 70 2 14 7 55 10 92 3 37 8 77 11 90 9 40 12 548 3 653 -9 117 -19 219
-24 243 -1 9 -6 38 -9 64 -61 456 -260 1039 -486 1423 -9 17 -26 46 -37 65
-35 61 -86 143 -132 210 -63 93 -134 194 -141 200 -3 3 -21 25 -40 50 -315
407 -761 792 -1220 1053 -110 62 -378 191 -493 237 -308 122 -651 215 -932
255 -23 3 -50 7 -62 9 -12 3 -57 8 -100 12 -43 3 -91 8 -108 11 -35 5 -572 13
-577 8z"/>
</g>
</svg>
